<svg xmlns="http://www.w3.org/2000/svg" viewBox="0 0 400 225">
  <rect width="400" height="225" fill="#0D0D0D"/>
  <radialGradient id="g" cx="50%" cy="50%" r="70%">
    <stop offset="0%" stop-color="#FF6600" stop-opacity=".9"/>
    <stop offset="100%" stop-color="#0D0D0D" stop-opacity="0"/>
  </radialGradient>
  <rect width="400" height="225" fill="url(#g)"/>
  <filter id="logo_blur" x="-20%" y="-20%" width="140%" height="140%">
    <feGaussianBlur stdDeviation="0.30"/>
  </filter>
  <g transform="translate(153.97,67.44) scale(3.2189)" opacity="0.50" filter="url(#logo_blur)">
    <path d="M24.5137 7.86411L22.404 0.0192871L0.269531 5.92825L2.37919 13.7779V13.7827C3.70195 14.0531 4.82677 15.0379 5.20332 16.4283C5.57505 17.8186 5.09712 19.2331 4.08815 20.1262V20.131L6.19781 27.9807L28.3323 22.0717L26.2226 14.222C24.8902 13.9565 23.7606 12.9669 23.384 11.5717C23.0123 10.1814 23.495 8.75722 24.5137 7.86411Z" fill="#FF7300"/>
<path d="M16.2584 8.13923L9.66876 9.89647L10.9915 14.8206L17.5812 13.0634L18.9039 17.9875L12.3191 19.7447L13.6419 24.6689L7.05221 26.4261L5.45428 20.4689C6.41497 19.291 6.81566 17.6882 6.39083 16.1096C5.966 14.531 4.81221 13.3434 3.38807 12.8027L1.75635 6.7344L14.9308 3.21509L16.2584 8.13923Z" fill="#3478C1"/>
<path d="M16.2973 8.1972L9.71727 9.95444L11.04 14.8689L17.62 13.1117L18.9428 18.0262L12.3628 19.7834L13.6855 24.6979L7.10554 26.46L5.50761 20.5124C6.4683 19.3393 6.86899 17.7365 6.44416 16.1579C6.01934 14.5841 4.87037 13.3917 3.44623 12.8558L1.81934 6.79237L14.9745 3.28271L16.2973 8.1972Z" fill="white"/>
  </g>
</svg>
