<svg xmlns="http://www.w3.org/2000/svg" viewBox="0 0 400 225">
  <rect width="400" height="225" fill="#0A0F1A"/>
  <radialGradient id="b" cx="30%" cy="50%" r="60%">
    <stop offset="0%" stop-color="#17408B" stop-opacity=".9"/>
    <stop offset="100%" stop-color="#0A0F1A" stop-opacity="0"/>
  </radialGradient>
  <rect width="400" height="225" fill="url(#b)"/>
  <radialGradient id="r" cx="70%" cy="50%" r="60%">
    <stop offset="0%" stop-color="#C9082A" stop-opacity=".9"/>
    <stop offset="100%" stop-color="#0A0F1A" stop-opacity="0"/>
  </radialGradient>
  <rect width="400" height="225" fill="url(#r)"/>
  <filter id="logo_blur" x="-20%" y="-20%" width="140%" height="140%">
    <feGaussianBlur stdDeviation="0.30"/>
  </filter>
  <g transform="translate(155.00,67.50) scale(3.7500)" opacity="0.50" filter="url(#logo_blur)">
    <circle cx="12" cy="12" r="10" fill="none" stroke="white" stroke-width="2"/>
  <path d="M12 2 C14.5 5 15.5 9 15 12 C14.5 15 13.5 19 12 22" fill="none" stroke="white" stroke-width="1.5"/>
  <path d="M12 2 C9.5 5 8.5 9 9 12 C9.5 15 10.5 19 12 22" fill="none" stroke="white" stroke-width="1.5"/>
  <path d="M2 12 C5 10 8 9 12 9 C16 9 19 10 22 12" fill="none" stroke="white" stroke-width="1.5"/>
  <path d="M2 12 C5 14 8 15 12 15 C16 15 19 14 22 12" fill="none" stroke="white" stroke-width="1.5"/>
  </g>
</svg>
