<svg xmlns="http://www.w3.org/2000/svg" viewBox="0 0 400 225">
  <rect width="400" height="225" fill="#0F0F0F"/>
  <radialGradient id="g" cx="50%" cy="50%" r="70%">
    <stop offset="0%" stop-color="#FF0000" stop-opacity=".85"/>
    <stop offset="100%" stop-color="#0F0F0F" stop-opacity="0"/>
  </radialGradient>
  <rect width="400" height="225" fill="url(#g)"/>
  <filter id="logo_blur" x="-20%" y="-20%" width="140%" height="140%">
    <feGaussianBlur stdDeviation="0.30"/>
  </filter>
  <g transform="translate(155.00,67.50) scale(3.7500)" opacity="0.50" filter="url(#logo_blur)">
    <path d="M23.498 6.186a3.016 3.016 0 0 0-2.122-2.136C19.505 3.545 12 3.545 12 3.545s-7.505 0-9.377.505A3.017 3.017 0 0 0 .502 6.186C0 8.07 0 12 0 12s0 3.93.502 5.814a3.016 3.016 0 0 0 2.122 2.136c1.871.505 9.376.505 9.376.505s7.505 0 9.377-.505a3.015 3.015 0 0 0 2.122-2.136C24 15.93 24 12 24 12s0-3.93-.502-5.814zM9.545 15.568V8.432L15.818 12l-6.273 3.568z" fill="white"/>
  </g>
</svg>
